<?xml version="1.0" encoding="UTF-8"?>
<svg id="_レイヤー_1" data-name="レイヤー 1" xmlns="http://www.w3.org/2000/svg" viewBox="0 0 145.15 145.15">
  <defs>
    <style>
      .cls-1 {
        fill: #bde2e8;
      }

      .cls-1, .cls-2, .cls-3, .cls-4, .cls-5, .cls-6 {
        stroke-width: 0px;
      }

      .cls-2 {
        fill: #4aaba3;
      }

      .cls-3 {
        fill: #0e8284;
      }

      .cls-4 {
        fill: #fff;
      }

      .cls-5 {
        fill: #f09b24;
      }

      .cls-6 {
        fill: #79c9d5;
      }
    </style>
  </defs>
  <circle class="cls-2" cx="72.58" cy="72.58" r="72.58"/>
  <g>
    <rect class="cls-1" x="43.26" y="22.73" width="69.48" height="94.61"/>
    <g>
      <polygon class="cls-4" points="106.34 29.14 106.34 106.81 89.41 123.75 36.86 123.75 36.86 29.14 106.34 29.14"/>
      <polygon class="cls-6" points="89.41 123.75 89.41 106.81 106.34 106.81 89.41 123.75"/>
    </g>
    <rect class="cls-1" x="43.26" y="46.81" width="55.89" height="1.46"/>
    <rect class="cls-1" x="43.26" y="42.59" width="55.89" height="1.46"/>
    <rect class="cls-1" x="43.26" y="59.02" width="55.89" height="1.46"/>
    <rect class="cls-1" x="43.26" y="54.8" width="55.89" height="1.46"/>
    <rect class="cls-1" x="43.26" y="71.22" width="55.89" height="1.46"/>
    <rect class="cls-1" x="43.26" y="67" width="55.89" height="1.46"/>
    <rect class="cls-1" x="43.26" y="83.43" width="55.89" height="1.46"/>
    <rect class="cls-1" x="43.26" y="79.21" width="55.89" height="1.46"/>
    <rect class="cls-1" x="43.26" y="95.64" width="55.89" height="1.46"/>
    <rect class="cls-1" x="43.26" y="91.42" width="55.89" height="1.46"/>
    <rect class="cls-1" x="43.26" y="107.85" width="37.18" height="1.46"/>
    <rect class="cls-1" x="43.26" y="103.63" width="37.18" height="1.46"/>
  </g>
  <g>
    <g>
      <polygon class="cls-3" points="61.64 96.6 52.65 87.61 44.11 96.16 42.3 94.35 52.65 83.99 61.64 92.98 81.69 72.93 92.85 84.09 107.65 69.29 109.46 71.1 92.85 87.71 81.69 76.56 61.64 96.6"/>
      <polygon class="cls-3" points="113.02 78.37 117.65 61.1 100.38 65.72 113.02 78.37"/>
    </g>
    <g>
      <path class="cls-4" d="M92.75,91.31c-3.05,0-5.54-2.48-5.54-5.54s2.48-5.54,5.54-5.54,5.54,2.48,5.54,5.54-2.48,5.54-5.54,5.54Z"/>
      <path class="cls-3" d="M92.75,81.51c2.35,0,4.26,1.91,4.26,4.26s-1.91,4.26-4.26,4.26-4.26-1.91-4.26-4.26,1.91-4.26,4.26-4.26M92.75,78.95c-3.76,0-6.82,3.06-6.82,6.82s3.06,6.82,6.82,6.82,6.82-3.06,6.82-6.82-3.06-6.82-6.82-6.82h0Z"/>
    </g>
    <g>
      <path class="cls-4" d="M43.2,101.14c-3.05,0-5.54-2.48-5.54-5.54s2.48-5.54,5.54-5.54,5.54,2.48,5.54,5.54-2.48,5.54-5.54,5.54Z"/>
      <path class="cls-3" d="M43.2,91.34c2.35,0,4.26,1.91,4.26,4.26s-1.91,4.26-4.26,4.26-4.26-1.91-4.26-4.26,1.91-4.26,4.26-4.26M43.2,88.78c-3.76,0-6.82,3.06-6.82,6.82s3.06,6.82,6.82,6.82,6.82-3.06,6.82-6.82-3.06-6.82-6.82-6.82h0Z"/>
    </g>
  </g>
  <rect class="cls-5" x="45.05" y="111.34" width="8.09" height="19.72"/>
  <rect class="cls-3" x="57.63" y="121.78" width="8.09" height="9.28"/>
  <rect class="cls-5" x="70.2" y="115.39" width="8.09" height="15.67"/>
  <rect class="cls-3" x="82.78" y="98.82" width="8.09" height="32.24"/>
  <rect class="cls-5" x="95.35" y="106.86" width="8.09" height="24.21"/>
</svg>