<?xml version="1.0" encoding="UTF-8"?>
<svg id="_レイヤー_1" data-name="レイヤー 1" xmlns="http://www.w3.org/2000/svg" xmlns:xlink="http://www.w3.org/1999/xlink" viewBox="0 0 145.15 145.15">
  <defs>
    <style>
      .cls-1 {
        fill: #4aaba3;
      }

      .cls-1, .cls-2, .cls-3, .cls-4, .cls-5, .cls-6, .cls-7, .cls-8, .cls-9, .cls-10, .cls-11 {
        stroke-width: 0px;
      }

      .cls-2 {
        fill: #221f20;
      }

      .cls-12, .cls-4 {
        fill: #fff;
      }

      .cls-13 {
        clip-path: url(#clippath-2);
      }

      .cls-3 {
        fill: #0e8284;
      }

      .cls-14 {
        clip-path: url(#clippath-1);
      }

      .cls-5 {
        fill: #783d8f;
      }

      .cls-6 {
        fill: #a9c238;
      }

      .cls-7 {
        fill: #e04866;
      }

      .cls-8 {
        fill: #f09b24;
      }

      .cls-9 {
        fill: #f7d691;
      }

      .cls-15 {
        clip-path: url(#clippath);
      }

      .cls-10 {
        fill: #2f9fd1;
      }

      .cls-16 {
        clip-path: url(#clippath-3);
      }

      .cls-11 {
        fill: #f5d52a;
      }

      .cls-17 {
        opacity: .17;
      }
    </style>
    <clipPath id="clippath">
      <circle class="cls-4" cx="106.71" cy="107.21" r="16.68"/>
    </clipPath>
    <clipPath id="clippath-1">
      <circle class="cls-4" cx="106.71" cy="38.1" r="16.68" transform="translate(48.8 135.49) rotate(-78.91)"/>
    </clipPath>
    <clipPath id="clippath-2">
      <circle class="cls-4" cx="38.44" cy="107.21" r="16.68"/>
    </clipPath>
    <clipPath id="clippath-3">
      <circle class="cls-4" cx="38.44" cy="38.1" r="16.68" transform="translate(-4.75 70.71) rotate(-81.81)"/>
    </clipPath>
  </defs>
  <circle class="cls-6" cx="72.58" cy="72.58" r="72.58" transform="translate(-30.06 72.58) rotate(-45)"/>
  <g>
    <g>
      <polygon class="cls-5" points="46.21 76.08 38.44 89.52 30.67 76.08 34.55 76.08 34.55 54.25 42.33 54.25 42.33 76.08 46.21 76.08"/>
      <g class="cls-17">
        <polygon class="cls-2" points="46.21 76.08 38.44 89.52 38.44 54.25 42.33 54.25 42.33 76.08 46.21 76.08"/>
      </g>
    </g>
    <g>
      <polygon class="cls-5" points="76.11 114.98 76.11 111.1 54.29 111.1 54.29 103.32 76.11 103.32 76.11 99.44 89.57 107.21 76.11 114.98"/>
      <g class="cls-17">
        <polygon class="cls-2" points="76.11 114.98 76.11 111.1 54.29 111.1 54.29 107.21 89.57 107.21 76.11 114.98"/>
      </g>
    </g>
    <g>
      <polygon class="cls-5" points="90.35 34.21 90.35 41.99 68.53 41.99 68.53 45.87 55.07 38.1 68.53 30.33 68.53 34.21 90.35 34.21"/>
      <g class="cls-17">
        <polygon class="cls-2" points="90.35 38.1 90.35 41.99 68.53 41.99 68.53 45.87 55.07 38.1 90.35 38.1"/>
      </g>
    </g>
    <g>
      <polygon class="cls-5" points="114.48 69.26 110.61 69.26 110.61 91.09 102.82 91.09 102.82 69.26 98.94 69.26 106.71 55.81 114.48 69.26"/>
      <g class="cls-17">
        <polygon class="cls-2" points="114.48 69.26 110.61 69.26 110.61 91.09 106.71 91.09 106.71 55.81 114.48 69.26"/>
      </g>
    </g>
    <g>
      <circle class="cls-4" cx="72.58" cy="72.65" r="19.77"/>
      <path class="cls-11" d="M81.74,74.4l-12.85,7.81c-1.37.81-3.11-.15-3.11-1.76v-15.6c0-1.6,1.74-2.57,3.11-1.76l12.85,7.81c1.31.81,1.31,2.71,0,3.5Z"/>
    </g>
    <g>
      <circle class="cls-12" cx="106.71" cy="107.21" r="16.68"/>
      <g class="cls-15">
        <g>
          <path class="cls-1" d="M115.96,123.16v9.25h-18.49v-9.25c0-5.1,4.14-9.24,9.25-9.24,2.55,0,4.86,1.04,6.54,2.71,1.67,1.67,2.71,3.99,2.71,6.53Z"/>
          <g>
            <path class="cls-9" d="M113.69,102.1v3.91c0,3.85-3.12,6.98-6.98,6.98s-6.98-3.12-6.98-6.98v-3.91c0-.05,0-.1,0-.15.08-3.78,3.17-6.82,6.97-6.82,1.93,0,3.67.78,4.94,2.04,1.26,1.26,2.04,3.01,2.04,4.94Z"/>
            <path class="cls-3" d="M113.69,102.1v.18c-6.28.4-10.27-3.61-10.27-3.61-1.56,2.6-2.54,2.92-3.69,3.28.08-3.78,3.17-6.82,6.97-6.82,1.93,0,3.67.78,4.94,2.04,1.26,1.26,2.04,3.01,2.04,4.94Z"/>
          </g>
        </g>
      </g>
    </g>
    <g>
      <circle class="cls-12" cx="106.71" cy="38.1" r="16.68" transform="translate(48.8 135.49) rotate(-78.91)"/>
      <g class="cls-14">
        <g>
          <path class="cls-10" d="M115.96,54.04v9.25h-18.49v-9.25c0-5.1,4.14-9.24,9.25-9.24,2.55,0,4.86,1.04,6.54,2.71,1.67,1.67,2.71,3.99,2.71,6.53Z"/>
          <g>
            <path class="cls-9" d="M113.69,32.98v3.91c0,3.85-3.12,6.98-6.98,6.98s-6.98-3.12-6.98-6.98v-3.91c0-.05,0-.1,0-.15.08-3.78,3.17-6.82,6.97-6.82,1.93,0,3.67.78,4.94,2.04,1.26,1.26,2.04,3.01,2.04,4.94Z"/>
            <path class="cls-3" d="M113.69,32.98v.18c-6.28.4-10.27-3.61-10.27-3.61-1.56,2.6-2.54,2.92-3.69,3.28.08-3.78,3.17-6.82,6.97-6.82,1.93,0,3.67.78,4.94,2.04,1.26,1.26,2.04,3.01,2.04,4.94Z"/>
          </g>
        </g>
      </g>
    </g>
    <g>
      <circle class="cls-12" cx="38.44" cy="107.21" r="16.68"/>
      <g class="cls-13">
        <g>
          <path class="cls-8" d="M47.68,123.16v9.25h-18.49v-9.25c0-5.1,4.14-9.24,9.25-9.24,2.55,0,4.86,1.04,6.53,2.71,1.67,1.67,2.71,3.99,2.71,6.53Z"/>
          <g>
            <path class="cls-9" d="M45.42,102.1v3.91c0,3.85-3.12,6.98-6.98,6.98s-6.98-3.12-6.98-6.98v-3.91c0-.05,0-.1,0-.15.08-3.78,3.17-6.82,6.97-6.82,1.93,0,3.67.78,4.94,2.04,1.26,1.26,2.04,3.01,2.04,4.94Z"/>
            <path class="cls-3" d="M45.42,102.1v.18c-6.28.4-10.27-3.61-10.27-3.61-1.56,2.6-2.54,2.92-3.69,3.28.08-3.78,3.17-6.82,6.97-6.82,1.93,0,3.67.78,4.94,2.04,1.26,1.26,2.04,3.01,2.04,4.94Z"/>
          </g>
        </g>
      </g>
    </g>
    <g>
      <circle class="cls-12" cx="38.44" cy="38.1" r="16.68" transform="translate(-4.75 70.71) rotate(-81.81)"/>
      <g class="cls-16">
        <g>
          <path class="cls-7" d="M47.68,54.04v9.25h-18.49v-9.25c0-5.1,4.14-9.24,9.25-9.24,2.55,0,4.86,1.04,6.53,2.71,1.67,1.67,2.71,3.99,2.71,6.53Z"/>
          <g>
            <path class="cls-9" d="M45.42,32.98v3.91c0,3.85-3.12,6.98-6.98,6.98s-6.98-3.12-6.98-6.98v-3.91c0-.05,0-.1,0-.15.08-3.78,3.17-6.82,6.97-6.82,1.93,0,3.67.78,4.94,2.04,1.26,1.26,2.04,3.01,2.04,4.94Z"/>
            <path class="cls-3" d="M45.42,32.98v.18c-6.28.4-10.27-3.61-10.27-3.61-1.56,2.6-2.54,2.92-3.69,3.28.08-3.78,3.17-6.82,6.97-6.82,1.93,0,3.67.78,4.94,2.04,1.26,1.26,2.04,3.01,2.04,4.94Z"/>
          </g>
        </g>
      </g>
    </g>
  </g>
</svg>