<?xml version="1.0" encoding="UTF-8"?>
<svg id="_レイヤー_1" data-name="レイヤー 1" xmlns="http://www.w3.org/2000/svg" viewBox="0 0 145.15 145.15">
  <defs>
    <style>
      .cls-1 {
        fill: #243139;
      }

      .cls-1, .cls-2, .cls-3, .cls-4 {
        stroke-width: 0px;
      }

      .cls-2 {
        fill: #edf2f2;
      }

      .cls-3 {
        fill: #a9c238;
      }

      .cls-4 {
        fill: #f5d52a;
      }
    </style>
  </defs>
  <circle class="cls-4" cx="72.58" cy="72.58" r="72.58" transform="translate(-14.73 126.54) rotate(-76.72)"/>
  <g>
    <path class="cls-3" d="M92.98,52.64c-5.31-.25-9.7,3.98-9.7,9.24,0,3.48,1.92,6.51,4.75,8.09.6.33.98.93.98,1.61v.03c0,.54-.44.97-.98.97h-15.46v39.9h19.52c11.26,0,20.39-9.13,20.39-20.39v-19.52h-15.46c-.54,0-.98-.43-.98-.97v-.03c0-.67.38-1.27.97-1.6,2.92-1.62,4.87-4.77,4.77-8.37-.14-4.77-4.03-8.74-8.8-8.96Z"/>
    <path class="cls-1" d="M92.52,92.98c.25-5.31-3.98-9.7-9.24-9.7-3.48,0-6.51,1.92-8.08,4.75-.33.6-.93.98-1.61.98h-.03c-.54,0-.97-.44-.97-.98v-15.46h-39.9v19.52c0,11.26,9.13,20.39,20.39,20.39h19.52v-15.46c0-.54.43-.98.97-.98h.03c.67,0,1.27.38,1.6.97,1.62,2.92,4.77,4.87,8.37,4.77,4.77-.14,8.74-4.03,8.96-8.8Z"/>
    <path class="cls-2" d="M52.64,52.17c.23-4.77,4.19-8.66,8.96-8.8,3.6-.1,6.75,1.84,8.37,4.77.33.59.93.97,1.6.97h.03c.54,0,.97-.44.97-.98v-15.46h-19.52c-11.26,0-20.39,9.13-20.39,20.39v19.52h15.46c.54,0,.98.43.98.97v.03c0,.67-.38,1.27-.97,1.6-2.92,1.62-4.87,4.77-4.77,8.37.14,4.77,4.03,8.74,8.8,8.96,5.31.25,9.7-3.98,9.7-9.24,0-3.48-1.92-6.51-4.75-8.09-.6-.33-.98-.93-.98-1.61v-.03c0-.54.44-.97.98-.97h15.46v-15.46c0-.54-.43-.98-.97-.98h-.03c-.68,0-1.28.39-1.61.98-1.58,2.83-4.61,4.75-8.09,4.75-5.26,0-9.5-4.39-9.24-9.7Z"/>
  </g>
</svg>